<?xml version="1.0" encoding="UTF-8" standalone="no"?>
<!-- Created with Inkscape (http://www.inkscape.org/) -->

<svg
   xmlns:dc="http://purl.org/dc/elements/1.1/"
   xmlns:cc="http://creativecommons.org/ns#"
   xmlns:rdf="http://www.w3.org/1999/02/22-rdf-syntax-ns#"
   xmlns:svg="http://www.w3.org/2000/svg"
   xmlns="http://www.w3.org/2000/svg"
   xmlns:sodipodi="http://sodipodi.sourceforge.net/DTD/sodipodi-0.dtd"
   xmlns:inkscape="http://www.inkscape.org/namespaces/inkscape"
   width="2048"
   height="2048"
   viewBox="0 0 541.86667 541.86667"
   version="1.1"
   id="svg3719"
   inkscape:version="0.92.3 (2405546, 2018-03-11)"
   sodipodi:docname="snowman.svg"
   inkscape:export-filename="/home/sneeuwpop/Github/POKEMON/TinyPokemonWorld/assets/textures/snowman.svg.png"
   inkscape:export-xdpi="96"
   inkscape:export-ydpi="96">
  <defs
     id="defs3713" />
  <sodipodi:namedview
     id="base"
     pagecolor="#ffffff"
     bordercolor="#666666"
     borderopacity="1.0"
     inkscape:pageopacity="0.0"
     inkscape:pageshadow="2"
     inkscape:zoom="0.35355339"
     inkscape:cx="783.58034"
     inkscape:cy="1153.7643"
     inkscape:document-units="px"
     inkscape:current-layer="layer1"
     showgrid="false"
     inkscape:window-width="730"
     inkscape:window-height="445"
     inkscape:window-x="2711"
     inkscape:window-y="436"
     inkscape:window-maximized="1"
     units="px"
     width="2048px"
     inkscape:pagecheckerboard="true"
     showguides="true" />
  <metadata
     id="metadata3716">
    <rdf:RDF>
      <cc:Work
         rdf:about="">
        <dc:format>image/svg+xml</dc:format>
        <dc:type
           rdf:resource="http://purl.org/dc/dcmitype/StillImage" />
        <dc:title />
      </cc:Work>
    </rdf:RDF>
  </metadata>
  <g
     inkscape:label="Layer 1"
     inkscape:groupmode="layer"
     id="layer1"
     transform="translate(0,244.86667)">
    <rect
       id="rect3723"
       width="541.86774"
       height="541.86859"
       x="0"
       y="-244.86859"
       style="fill:#00ff00;stroke-width:0.81108677" />
    <circle
       style="fill:#ffffff;stroke-width:0.29135662"
       id="path3744"
       cx="252.94167"
       cy="186.93361"
       r="97.895836" />
    <circle
       style="fill:#ffffff;stroke-width:0.2141865"
       id="path3744-3"
       cx="249.76666"
       cy="60.462494"
       r="71.966667" />
    <circle
       style="fill:#ffffff;stroke-width:0.19843748"
       id="path3744-3-6"
       cx="246.59164"
       cy="-51.191669"
       r="66.675003" />
    <rect
       style="fill:#000000;stroke-width:0.3063125"
       id="rect3776"
       width="93.133331"
       height="83.82"
       x="200.02499"
       y="-179.88499"
       rx="13.096875"
       ry="14.507307" />
    <rect
       style="fill:#000000;stroke-width:0.23122673"
       id="rect3776-7"
       width="178.85834"
       height="24.870831"
       x="157.16249"
       y="-113.63333"
       rx="12.435415"
       ry="12.435415" />
    <ellipse
       style="fill:#333333;stroke-width:0.26458332"
       id="path3793"
       cx="224.36667"
       cy="-65.214592"
       rx="14.287499"
       ry="14.022917" />
    <ellipse
       style="fill:#333333;stroke-width:0.26458332"
       id="path3793-5"
       cx="280.45834"
       cy="-66.537498"
       rx="14.287499"
       ry="14.022917" />
    <rect
       style="fill:#ff6600;stroke-width:0.18568315"
       id="rect3812"
       width="44.979164"
       height="19.050001"
       x="255.05833"
       y="-46.95834"
       ry="9.5250006" />
    <rect
       style="fill:#808080;stroke-width:0.19819146"
       id="rect3824"
       width="6.0886421"
       height="4.8643055"
       x="239.75414"
       y="-21.331383"
       ry="2.4321527" />
    <rect
       style="fill:#808080;stroke-width:0.26458332"
       id="rect3824-3"
       width="10.851142"
       height="4.8643055"
       x="244.81757"
       y="-17.131264"
       ry="2.4321527" />
    <rect
       style="fill:#808080;stroke-width:0.26458332"
       id="rect3824-3-1"
       width="10.851142"
       height="4.8643055"
       x="254.08122"
       y="-12.796124"
       ry="2.4321527" />
    <rect
       style="fill:#808080;stroke-width:0.26458332"
       id="rect3824-3-1-2"
       width="10.851142"
       height="4.8643055"
       x="259.6734"
       y="-12.791437"
       ry="2.4321527" />
    <rect
       style="fill:#808080;stroke-width:0.26458332"
       id="rect3824-3-7"
       width="10.851142"
       height="4.8643055"
       x="269.21194"
       y="-17.11132"
       ry="2.4321527" />
    <rect
       style="fill:#808080;stroke-width:0.19819146"
       id="rect3824-0"
       width="6.0886421"
       height="4.8643055"
       x="279.19995"
       y="-20.881634"
       ry="2.4321527" />
    <path
       style="fill:#784421;stroke-width:0.31534326"
       d="m 119.84346,-4.3497384 75.987,59.9263184 c 1.26096,0.994451 1.47552,2.810179 0.48107,4.071144 l -0.55231,0.70034 c -0.99444,1.260964 -2.81018,1.475525 -4.07114,0.481074 L 115.70108,0.90281606 C 114.44012,-0.09163547 114.22555,-1.9073609 115.22,-3.168324 l 0.55232,-0.7003394 c 0.99444,-1.2609643 2.81017,-1.4755269 4.07114,-0.481075 z"
       id="rect3954"
       inkscape:connector-curvature="0" />
    <path
       inkscape:connector-curvature="0"
       style="fill:#784421;stroke-width:0.31534326"
       d="m 101.88079,-3.9259794 15.1473,-1.1011589 c 1.59586,-0.1794244 3.02506,0.9608616 3.2045,2.5567223 l 0.0996,0.8863365 c 0.17946,1.59584166 -0.95501,3.0880473 -2.55673,3.2044929 L 102.6282,2.7215727 C 101.02651,2.8380044 99.603128,1.7607202 99.423696,0.16486703 l -0.09964,-0.88633811 C 99.1446,-2.3173207 100.28491,-3.7465287 101.88079,-3.9259794 Z"
       id="rect3954-3"
       sodipodi:nodetypes="ccccssccc" />
    <path
       inkscape:connector-curvature="0"
       style="fill:#784421;stroke-width:0.31534326"
       d="m 115.0915,-17.301874 6.17385,13.8757662 c 0.7101,1.4403852 0.1222,3.17164436 -1.31819,3.88175454 l -0.79999,0.39437912 C 117.70681,1.56015 115.91826,0.9990912 115.26541,-0.46816511 L 109.09158,-14.343929 c -0.65284,-1.467234 -0.12223,-3.171642 1.31816,-3.881753 l 0.8,-0.394379 c 1.44036,-0.71013 3.17163,-0.122206 3.88176,1.318187 z"
       id="rect3954-3-6"
       sodipodi:nodetypes="ccccssccc" />
    <path
       inkscape:connector-curvature="0"
       style="fill:#784421;stroke-width:0.28360143"
       d="m 378.22449,4.343389 -65.57316,57.226518 c -1.08816,0.949644 -2.7287,0.838142 -3.67834,-0.250018 l -0.52744,-0.604359 c -0.94964,-1.08815 -0.83813,-2.72869 0.25003,-3.678333 l 65.57316,-57.22650414 c 1.08815,-0.94965486 2.7287,-0.83814306 3.67834,0.25000585 l 0.52744,0.60435969 c 0.94964,1.0881489 0.83813,2.7286885 -0.25003,3.6783306 z"
       id="rect3954-1" />
    <path
       inkscape:connector-curvature="0"
       style="fill:#784421;stroke-width:0.28360143"
       d="m 380.82927,-11.604363 -1.53904,13.5715604 c -0.10612,1.4403639 -1.35107,2.514528 -2.79144,2.408438 l -0.79997,-0.058942 c -1.44035,-0.1060626 -2.57118,-1.3563451 -2.40843,-2.7914353 l 1.53903,-13.5715621 c 0.16274,-1.435072 1.35106,-2.514532 2.79141,-2.408444 l 0.79998,0.05894 c 1.44037,0.106062 2.51452,1.351058 2.40846,2.791442 z"
       id="rect3954-3-8"
       sodipodi:nodetypes="ccccssccc" />
    <path
       inkscape:connector-curvature="0"
       style="fill:#784421;stroke-width:0.28360143"
       d="m 390.46126,2.2913344 -13.28901,3.1556868 c -1.39095,0.388765 -2.82374,-0.4180424 -3.21251,-1.8089994 l -0.2159,-0.7725386 c -0.3888,-1.3909385 0.40378,-2.87880312 1.809,-3.2125003 l 13.289,-3.1556754 c 1.4052,-0.3336912 2.82373,0.4180198 3.21252,1.8089774 l 0.21589,0.7725472 c 0.38881,1.39094196 -0.41803,2.8237191 -1.80899,3.2125023 z"
       id="rect3954-3-6-7"
       sodipodi:nodetypes="ccccssccc" />
    <ellipse
       style="fill:#ececec;stroke-width:0.27095911"
       id="path3793-9"
       cx="252.10474"
       cy="57.496693"
       rx="14.631791"
       ry="14.360833" />
    <ellipse
       style="fill:#ececec;stroke-width:0.27095908"
       id="path3793-9-2"
       cx="252.10475"
       cy="112.9015"
       rx="14.631791"
       ry="14.360832" />
    <ellipse
       style="fill:#ececec;stroke-width:0.27095905"
       id="path3793-9-2-0"
       cx="252.10475"
       cy="168.30635"
       rx="14.631791"
       ry="14.360831" />
  </g>
</svg>
